<svg width="24" height="24" viewBox="0 0 24 24" fill="none" xmlns="http://www.w3.org/2000/svg">
<rect width="24" height="24" rx="12" fill="#F8F8F8"/>
<g clip-path="url(#clip0_80_283)">
<path fill-rule="evenodd" clip-rule="evenodd" d="M11.9975 5.35001C10.3461 5.35086 8.74883 5.93577 7.49132 7.00013C6.2338 8.0645 5.39804 9.53891 5.13349 11.1597C4.86894 12.7806 5.19285 14.4421 6.04729 15.8473C6.90173 17.2525 8.23099 18.3096 9.79739 18.8297C10.143 18.8939 10.2731 18.6797 10.2731 18.4976C10.2731 18.3155 10.2662 17.7874 10.2639 17.2102C8.32871 17.6282 7.91978 16.3935 7.91978 16.3935C7.60416 15.5918 7.148 15.381 7.148 15.381C6.51675 14.9527 7.19523 14.9607 7.19523 14.9607C7.89444 15.01 8.2619 15.6743 8.2619 15.6743C8.88163 16.7314 9.88954 16.4256 10.2858 16.2469C10.348 15.7991 10.5289 15.4944 10.7281 15.3215C9.18227 15.1474 7.55808 14.5541 7.55808 11.9037C7.5485 11.2164 7.80502 10.5517 8.27457 10.0471C8.20315 9.87303 7.9647 9.16978 8.34253 8.21455C8.34253 8.21455 8.92655 8.029 10.2559 8.92352C11.396 8.61349 12.599 8.61349 13.7392 8.92352C15.0674 8.029 15.6502 8.21455 15.6502 8.21455C16.0292 9.16748 15.7908 9.87073 15.7194 10.0471C16.1904 10.5518 16.4475 11.2176 16.437 11.906C16.437 14.5621 14.8094 15.1474 13.2612 15.3181C13.51 15.5334 13.7323 15.9537 13.7323 16.5997C13.7323 17.5252 13.7243 18.2696 13.7243 18.4976C13.7243 18.682 13.8498 18.8973 14.2023 18.8297C15.7689 18.3095 17.0983 17.2522 17.9527 15.8468C18.8071 14.4414 19.1309 12.7796 18.866 11.1586C18.6012 9.53764 17.765 8.0632 16.5071 6.99902C15.2491 5.93484 13.6515 5.35032 11.9998 5.35001H11.9975Z" fill="#191717"/>
<path d="M7.67542 15.2814C7.66045 15.3158 7.60516 15.3261 7.56023 15.302C7.51531 15.278 7.4819 15.2333 7.49803 15.1978C7.51416 15.1623 7.5683 15.1531 7.61322 15.1772C7.65815 15.2012 7.6927 15.247 7.67542 15.2814Z" fill="#191717"/>
<path d="M7.95765 15.5941C7.9338 15.606 7.90651 15.6094 7.88045 15.6035C7.85439 15.5977 7.83119 15.583 7.81482 15.562C7.76989 15.5139 7.76067 15.4475 7.79523 15.4177C7.82979 15.3879 7.892 15.4017 7.93692 15.4498C7.98185 15.4979 7.99221 15.5643 7.95765 15.5941Z" fill="#191717"/>
<path d="M8.23178 15.9915C8.18916 16.0213 8.11658 15.9915 8.07627 15.9319C8.06512 15.9213 8.05625 15.9084 8.0502 15.8943C8.04414 15.8801 8.04102 15.8649 8.04102 15.8495C8.04102 15.8341 8.04414 15.8188 8.0502 15.8047C8.05625 15.7905 8.06512 15.7777 8.07627 15.767C8.11889 15.7384 8.19146 15.767 8.23178 15.8254C8.2721 15.8838 8.27325 15.9617 8.23178 15.9915V15.9915Z" fill="#191717"/>
<path d="M8.60387 16.3764C8.56586 16.4187 8.48868 16.4073 8.42532 16.35C8.36197 16.2927 8.34699 16.2149 8.385 16.1736C8.42302 16.1324 8.50019 16.1439 8.56585 16.2C8.63151 16.2561 8.64419 16.3351 8.60387 16.3764V16.3764Z" fill="#191717"/>
<path d="M9.12566 16.6008C9.10838 16.6547 9.03005 16.6787 8.95172 16.6558C8.87339 16.6329 8.82156 16.5688 8.83653 16.5138C8.85151 16.4588 8.93099 16.4336 9.01047 16.4588C9.08995 16.484 9.14064 16.5447 9.12566 16.6008Z" fill="#191717"/>
<path d="M9.69476 16.6398C9.69476 16.6959 9.63026 16.744 9.54732 16.7452C9.46439 16.7463 9.39642 16.7005 9.39642 16.6444C9.39642 16.5882 9.46093 16.5401 9.54386 16.539C9.6268 16.5378 9.69476 16.5825 9.69476 16.6398Z" fill="#191717"/>
<path d="M10.2246 16.5516C10.2349 16.6077 10.1773 16.6661 10.0944 16.6799C10.0115 16.6936 9.9389 16.6604 9.92854 16.6054C9.91817 16.5505 9.97807 16.4909 10.0587 16.476C10.1393 16.4611 10.2142 16.4955 10.2246 16.5516Z" fill="#191717"/>
</g>
<defs>
<clipPath id="clip0_80_283">
<rect x="5" y="5" width="14" height="14" rx="6" fill="white"/>
</clipPath>
</defs>
</svg>
