<svg width="23" height="21" viewBox="0 0 23 21" fill="none" xmlns="http://www.w3.org/2000/svg">
<path d="M0.230469 14.6426C0.230469 14.2259 0.373698 13.8776 0.660156 13.5977C0.953125 13.3177 1.34049 13.1777 1.82227 13.1777C2.30404 13.1777 2.68815 13.3177 2.97461 13.5977C3.26758 13.8776 3.41406 14.2259 3.41406 14.6426C3.41406 15.0592 3.26758 15.4076 2.97461 15.6875C2.68815 15.9674 2.30404 16.1074 1.82227 16.1074C1.34049 16.1074 0.953125 15.9674 0.660156 15.6875C0.373698 15.4076 0.230469 15.0592 0.230469 14.6426ZM6.02148 10.4336V10.2188C6.02148 8.84505 6.16471 7.59831 6.45117 6.47852C6.74414 5.35872 7.12826 4.37565 7.60352 3.5293C8.08529 2.67643 8.60938 1.97005 9.17578 1.41016C9.74219 0.85026 10.3053 0.446615 10.8652 0.199219L11.4023 1.68359C11.0312 1.95703 10.6667 2.33464 10.3086 2.81641C9.95052 3.29167 9.625 3.8776 9.33203 4.57422C9.04557 5.26432 8.81445 6.07812 8.63867 7.01562C8.46289 7.94661 8.375 9.00781 8.375 10.1992V10.4531C8.375 11.6445 8.46289 12.709 8.63867 13.6465C8.81445 14.5775 9.04557 15.3913 9.33203 16.0879C9.625 16.791 9.95052 17.3835 10.3086 17.8652C10.6667 18.347 11.0312 18.7279 11.4023 19.0078L10.8652 20.4531C10.3053 20.2057 9.74219 19.8021 9.17578 19.2422C8.60938 18.6888 8.08529 17.9857 7.60352 17.1328C7.12826 16.2865 6.74414 15.3034 6.45117 14.1836C6.16471 13.0573 6.02148 11.8073 6.02148 10.4336ZM22.7012 10.2188V10.4336C22.7012 11.7617 22.5514 12.9857 22.252 14.1055C21.9525 15.2188 21.5553 16.2051 21.0605 17.0645C20.5723 17.9303 20.0352 18.6497 19.4492 19.2227C18.8698 19.7956 18.2904 20.2057 17.7109 20.4531L17.1641 19.0078C17.5352 18.7344 17.8965 18.3568 18.248 17.875C18.6061 17.3932 18.9316 16.8008 19.2246 16.0977C19.5176 15.401 19.7487 14.584 19.918 13.6465C20.0938 12.709 20.1816 11.6445 20.1816 10.4531V10.1992C20.1816 9.00781 20.0938 7.94336 19.918 7.00586C19.7422 6.06836 19.5046 5.2513 19.2051 4.55469C18.9121 3.85156 18.5866 3.26237 18.2285 2.78711C17.877 2.30534 17.5221 1.92773 17.1641 1.6543L17.7109 0.199219C18.2904 0.446615 18.8698 0.860026 19.4492 1.43945C20.0352 2.01237 20.5723 2.72852 21.0605 3.58789C21.5553 4.44727 21.9525 5.43685 22.252 6.55664C22.5514 7.66992 22.7012 8.89062 22.7012 10.2188Z" fill="#FFD670"/>
</svg>
